<?xml version="1.0" encoding="utf-8"?>
<!-- Generator: Adobe Illustrator 15.1.0, SVG Export Plug-In . SVG Version: 6.00 Build 0)  -->
<!DOCTYPE svg PUBLIC "-//W3C//DTD SVG 1.1//EN" "http://www.w3.org/Graphics/SVG/1.1/DTD/svg11.dtd">
<svg version="1.1" id="Ebene_1" xmlns="http://www.w3.org/2000/svg" xmlns:xlink="http://www.w3.org/1999/xlink" x="0px" y="0px"
	 width="4251.971px" height="2834.65px" viewBox="0 0 4251.971 2834.65" enable-background="new 0 0 4251.971 2834.65"
	 xml:space="preserve">
<rect fill="#003399" width="4251.969" height="2834.673"/>
<path fill="#FFCC00" d="M2124.896,908.985c-24.729,28.097-39.875,64.884-39.875,105.241c1.529,88.668,12.356,177.132,13.33,265.623
	c1.947,82.593-22.781,160.147-52.898,235.844c-10.066,20.938-20.879,41.332-31.75,61.845l-31.874-6.457
	c-28.771-5.71-47.467-33.646-41.698-62.416c5-25.183,27.167-42.752,51.845-42.752l11.669,1.244l-25.959-216.729
	c-8.47-96.413-58.258-181.148-131.485-236.136c-12.569-9.458-25.931-18.133-39.817-25.746v769.433h177.614
	c13.295,71.99,52.929,134.92,108.712,177.949c13.294,9.151,24.378,21.2,32.4,35.286c7.986-14.086,19.107-26.135,32.388-35.286
	c55.769-43.118,95.477-105.93,108.712-177.949h177.658V988.547c-13.881,7.613-27.264,16.288-39.84,25.746
	c-73.31,55.045-122.959,139.723-131.479,236.136l-25.93,216.729l11.625-1.244c24.655,0.073,46.896,17.568,51.858,42.752
	c5.739,28.771-12.958,56.691-41.698,62.416l-31.874,6.457c-10.864-20.514-21.714-40.907-31.743-61.845
	c-30.102-75.666-54.903-153.251-52.941-235.844c0.98-88.712,11.859-177.188,13.309-265.623c0-40.357-15.123-77.006-39.854-105.241
	L2124.896,908.985L2124.896,908.985z M1859.311,1099.439c34.379,40.353,57.445,90.578,64.255,145.895l21.259,178.763
	c-27.218,13.516-47.804,38.391-55.602,68.492h-30.116v-393.098L1859.311,1099.439z M2390.513,1099.439v393.018h-30.103
	c-7.73-30-28.375-54.904-55.607-68.434l21.229-178.741c6.882-55.265,29.956-105.542,64.319-145.9L2390.513,1099.439z
	 M2124.896,1458.813c14.269,46.633,33.916,91.084,58.295,132.212c-23.207,7.026-43.396,20.717-58.295,39.165
	c-14.875-18.448-35.065-32.123-58.323-39.194C2090.951,1549.808,2110.65,1505.444,2124.896,1458.813z M1859.311,1545.767h30.104
	c9.474,36.678,38.104,65.607,74.342,75.739l25.514,5.799c-6.81,24.772-10.579,50.731-10.579,77.818h-119.475v-159.342
	L1859.311,1545.767z M2360.482,1545.767h30.088v159.283h-119.531c0-26.853-3.676-52.973-10.541-77.761l25.476-5.813
	c36.429-10.146,65.066-39.092,74.407-75.738L2360.482,1545.767z M2041.236,1639.515c32.203,4.48,57.05,32.139,57.05,65.535h-66.413
	C2031.873,1682.326,2035.271,1660.364,2041.236,1639.515z M2208.506,1639.515c5.96,20.851,9.327,42.694,9.327,65.535h-66.397
	C2151.436,1671.609,2176.281,1643.995,2208.506,1639.515z M2037.986,1758.271h60.365v111.771
	C2069.128,1839.384,2047.905,1800.979,2037.986,1758.271z M2151.464,1758.271h60.366c-9.766,42.709-31.055,81.156-60.366,111.771
	V1758.271z"/>
<g>
	<path fill="#FFCC00" d="M2081.844,405.25c7.57-5.623,14.012-1.127,16.854,1.684c2.548-1.273,13.968-2.898,17.848-3.25
		c3.982-0.365,16.333-1.199,22.079-0.747c2.519,0.19,13.705,2.183,15.169,1.714c1.405-1.669,13.354-8.287,15.637-8.873
		c2.432-0.336,4.979-0.336,5.682,0.015c1.112,0.688,0.321,6.003-0.527,8.155c-0.819,2.151-6.354,12.46-6.354,12.46
		s0.177,4.378-0.526,5.578c-0.088,1.698-0.146,3.338,0.233,3.792c0.819,0.98,2.635,8.683,2.226,21.084
		c-0.116,3.294,0.029,3.646-0.028,5.681c1.054,0.952,1.288,1.405,1.288,1.405l0.029,10.277c0,0-1.201,2.855-0.996,4.583
		c0.204,1.729,1.934,4.013,5.065,6.341c2.079,1.536,16.779,13.895,16.955,16.324c0.06,0.878,0.233,2.489-0.146,3.178
		c0,0-1.847,3.191-2.227,3.235c0.292,0.571,5.65,14.013,3.484,18.58c-1.143,0.879-2.782,0.952-4.101,0.82
		c-1.464,0.966-2.753,3.031-4.627,4.553c0.06,2.388-7.146,18.142-10.19,23.368c-2.868,4.934-2.604,8.199-2.077,8.873
		c0.585,0.703,1.873,4.261,2.106,5.783c0.264,1.61-0.088,6.208-0.818,6.516c-0.088,0.673,0.906,1.537,1.845,3.221
		c1.316,2.387,8.932,8.155,10.366,8.243c1.082,1.055,1.785,2.812,1.552,4.349c-0.265,1.522-2.898,4.963-9.313,4.744
		c-6.383-0.234-19.854,0.248-23.426-7.307l-0.117-0.278c-0.527,0.426-1.464,0.47-2.635,0.615c-1.465-0.438-3.018-2.342-3.66-3.763
		c-0.029-1.771-0.088-5.637,0.06-6.56c-0.293-0.103-2.14-1.757-2.197-1.771c-0.06-0.029-1.171-13.514-1.728-14.348
		c-0.557-0.835-2.021-7.175-2.52-7.556c-0.468-0.38-7.768-11.42-10.402-10.424c-2.635,0.98-9.963,6.063-9.963,6.063
		s-17.717,17.833-17.365,19.59c0.322,1.742-3.073,3.191-3.221,6.472c-0.132,3.279-2.812,4.407-2.812,4.407s0.205,5.681-0.044,5.974
		c-0.248,0.293-2.094,5.417-5.988,5.842c-0.352,2.416-3.294,8.258-17.95,10.747c-10.718,1.362-11.127-4.51-10.907-5.505
		c0.22-0.98,0.177-2.84,2.68-5.021c1.464-1.289,4.861-5.856,6.223-8.741c-0.029-0.747,0.073-2.284,0.073-2.284
		s-2.211-1.142-2.095-2.226c0.104-1.083-0.015-4.145-0.015-4.145s2.709-7.115,2.621-9.707c-0.088-2.591,0.366-12.079-1.508-18.434
		c-1.144-3.909-5.563-14.48-8.728-17.115c-2.724,0.805-7.877-2.489-9.048-2.605c-0.674-3.163-2.592-9.166-2.841-9.487
		c-0.498-0.63-2.841-5.125-3.311-6.268c-0.818-1.977-0.878-6.428-0.584-10.044c0.088-1.068,0.789-4.772,2.006-6.822
		c4.144-6.984,18.783-20.249,18.783-20.249l-0.102-15.813c0,0,0.131-0.98,0.922-0.893s1.846,0.044,1.846,0.044
		s5.504-13.075,6.148-14.188c0.718-1.229,3.426-8.667,4.598-11.201c0.337-0.717,0.938-4.201,0.908-11.933
		C2082.006,406.993,2081.713,405.821,2081.844,405.25z"/>
</g>
<g>
	<path fill="#FFCC00" d="M2546.984,529.936c7.569-5.621,14.012-1.127,16.853,1.685c2.548-1.273,13.968-2.899,17.848-3.25
		c3.982-0.366,16.325-1.201,22.079-0.747c2.52,0.189,13.705,2.182,15.169,1.713c1.405-1.669,13.354-8.287,15.638-8.873
		c2.431-0.336,4.978-0.336,5.681,0.016c1.112,0.688,0.321,6.003-0.527,8.154c-0.819,2.152-6.354,12.46-6.354,12.46
		s0.177,4.378-0.526,5.578c-0.088,1.699-0.146,3.338,0.233,3.792c0.819,0.981,2.635,8.683,2.226,21.083
		c-0.116,3.294,0.028,3.646-0.029,5.682c1.055,0.951,1.289,1.405,1.289,1.405l0.029,10.278c0,0-1.201,2.854-0.996,4.583
		c0.204,1.729,1.934,4.012,5.065,6.34c2.079,1.537,16.779,13.896,16.955,16.325c0.06,0.878,0.234,2.489-0.146,3.177
		c0,0-1.847,3.192-2.227,3.236c0.292,0.571,5.651,14.012,3.484,18.58c-1.143,0.879-2.782,0.952-4.101,0.82
		c-1.464,0.966-2.753,3.03-4.627,4.553c0.06,2.387-7.145,18.141-10.189,23.368c-2.869,4.934-2.605,8.198-2.078,8.873
		c0.585,0.702,1.873,4.261,2.107,5.783c0.264,1.61-0.088,6.208-0.819,6.516c-0.088,0.673,0.907,1.538,1.845,3.221
		c1.316,2.387,8.932,8.155,10.366,8.243c1.083,1.054,1.786,2.811,1.552,4.348c-0.264,1.523-2.898,4.963-9.313,4.744
		c-6.384-0.234-19.854,0.249-23.427-7.306l-0.116-0.278c-0.527,0.425-1.465,0.469-2.636,0.615c-1.465-0.439-3.017-2.343-3.661-3.764
		c-0.028-1.771-0.086-5.637,0.06-6.559c-0.292-0.103-2.138-1.757-2.196-1.771c-0.059-0.029-1.171-13.515-1.728-14.35
		c-0.556-0.835-2.021-7.174-2.52-7.555c-0.468-0.38-7.772-11.42-10.409-10.424c-2.636,0.979-9.955,6.062-9.955,6.062
		s-17.718,17.833-17.365,19.59c0.322,1.742-3.074,3.192-3.221,6.473c-0.133,3.278-2.813,4.406-2.813,4.406s0.205,5.682-0.044,5.975
		c-0.248,0.293-2.094,5.417-5.988,5.842c-0.352,2.416-3.294,8.257-17.95,10.747c-10.718,1.362-11.127-4.51-10.906-5.505
		c0.219-0.981,0.176-2.84,2.679-5.022c1.464-1.288,4.861-5.855,6.223-8.741c-0.028-0.746,0.073-2.283,0.073-2.283
		s-2.211-1.143-2.094-2.227c0.103-1.083-0.016-4.143-0.016-4.143s2.709-7.116,2.621-9.708c-0.088-2.591,0.366-12.079-1.508-18.435
		c-1.143-3.908-5.563-14.479-8.727-17.114c-2.725,0.805-7.877-2.489-9.049-2.606c-0.674-3.163-2.592-9.166-2.841-9.487
		c-0.498-0.63-2.841-5.125-3.31-6.267c-0.819-1.977-0.878-6.428-0.585-10.044c0.088-1.069,0.79-4.773,2.006-6.823
		c4.144-6.982,18.784-20.249,18.784-20.249l-0.103-15.813c0,0,0.132-0.98,0.923-0.894c0.791,0.088,1.845,0.044,1.845,0.044
		s5.505-13.075,6.148-14.188c0.718-1.23,3.427-8.667,4.599-11.201c0.336-0.717,0.937-4.202,0.906-11.933
		C2547.146,531.678,2546.854,530.507,2546.984,529.936z"/>
</g>
<g>
	<path fill="#FFCC00" d="M2886.034,869.088c7.569-5.622,14.012-1.127,16.853,1.685c2.547-1.273,13.969-2.899,17.848-3.25
		c3.982-0.366,16.325-1.201,22.08-0.747c2.519,0.189,13.703,2.182,15.168,1.713c1.404-1.669,13.354-8.287,15.638-8.873
		c2.43-0.337,4.978-0.337,5.681,0.015c1.112,0.688,0.321,6.003-0.527,8.155c-0.818,2.152-6.354,12.459-6.354,12.459
		s0.176,4.378-0.527,5.579c-0.088,1.698-0.146,3.338,0.234,3.792c0.819,0.98,2.636,8.682,2.226,21.083
		c-0.117,3.294,0.029,3.646-0.029,5.681c1.056,0.952,1.288,1.406,1.288,1.406l0.029,10.278c0,0-1.2,2.854-0.995,4.583
		c0.205,1.728,1.933,4.012,5.065,6.34c2.08,1.538,16.778,13.894,16.955,16.325c0.059,0.879,0.233,2.488-0.146,3.178
		c0,0-1.845,3.19-2.227,3.235c0.293,0.57,5.651,14.012,3.485,18.579c-1.143,0.878-2.782,0.951-4.1,0.819
		c-1.466,0.967-2.753,3.031-4.627,4.554c0.059,2.388-7.146,18.142-10.19,23.368c-2.87,4.935-2.605,8.199-2.079,8.872
		c0.586,0.703,1.874,4.261,2.108,5.783c0.264,1.61-0.088,6.208-0.82,6.516c-0.087,0.675,0.908,1.537,1.845,3.222
		c1.318,2.387,8.933,8.154,10.366,8.242c1.084,1.056,1.786,2.813,1.552,4.35c-0.263,1.521-2.897,4.964-9.312,4.744
		c-6.385-0.234-19.854,0.249-23.426-7.308l-0.117-0.276c-0.527,0.424-1.465,0.468-2.637,0.613c-1.464-0.438-3.016-2.343-3.659-3.763
		c-0.029-1.771-0.088-5.637,0.059-6.56c-0.293-0.103-2.138-1.757-2.196-1.771c-0.059-0.029-1.17-13.514-1.728-14.349
		c-0.557-0.834-2.021-7.174-2.519-7.555c-0.47-0.382-7.774-11.421-10.41-10.426c-2.637,0.981-9.956,6.063-9.956,6.063
		s-17.716,17.833-17.364,19.591c0.322,1.742-3.075,3.191-3.222,6.471c-0.132,3.28-2.812,4.407-2.812,4.407s0.205,5.681-0.044,5.974
		s-2.094,5.418-5.987,5.843c-0.353,2.416-3.295,8.258-17.95,10.747c-10.718,1.36-11.128-4.511-10.908-5.506
		c0.22-0.98,0.176-2.841,2.68-5.021c1.464-1.288,4.861-5.856,6.224-8.741c-0.029-0.746,0.072-2.283,0.072-2.283
		s-2.211-1.143-2.094-2.226c0.104-1.084-0.015-4.145-0.015-4.145s2.709-7.115,2.621-9.706c-0.088-2.593,0.364-12.079-1.509-18.435
		c-1.143-3.909-5.563-14.479-8.727-17.116c-2.725,0.807-7.877-2.487-9.049-2.604c-0.674-3.163-2.592-9.166-2.84-9.488
		c-0.498-0.629-2.842-5.124-3.311-6.267c-0.819-1.978-0.878-6.428-0.585-10.043c0.087-1.069,0.79-4.773,2.006-6.823
		c4.144-6.984,18.784-20.249,18.784-20.249l-0.104-15.813c0,0,0.133-0.98,0.924-0.894c0.79,0.088,1.845,0.044,1.845,0.044
		s5.505-13.075,6.149-14.188c0.717-1.229,3.426-8.668,4.597-11.2c0.337-0.719,0.938-4.202,0.907-11.934
		C2886.195,870.83,2885.902,869.659,2886.034,869.088z"/>
</g>
<g>
	<path fill="#FFCC00" d="M3009.314,1332.867c7.568-5.623,14.012-1.128,16.852,1.684c2.548-1.272,13.969-2.898,17.848-3.25
		c3.982-0.366,16.326-1.201,22.08-0.747c2.519,0.19,13.704,2.183,15.168,1.713c1.406-1.669,13.354-8.286,15.637-8.873
		c2.432-0.337,4.979-0.337,5.683,0.016c1.112,0.688,0.321,6.003-0.527,8.155c-0.82,2.151-6.354,12.459-6.354,12.459
		s0.177,4.379-0.526,5.578c-0.088,1.699-0.146,3.34,0.233,3.793c0.819,0.98,2.637,8.683,2.227,21.083
		c-0.117,3.294,0.029,3.646-0.029,5.682c1.055,0.952,1.289,1.405,1.289,1.405l0.029,10.277c0,0-1.201,2.855-0.996,4.583
		c0.205,1.729,1.933,4.012,5.065,6.34c2.078,1.537,16.778,13.896,16.954,16.325c0.06,0.878,0.233,2.489-0.146,3.177
		c0,0-1.845,3.192-2.227,3.236c0.293,0.569,5.651,14.012,3.484,18.579c-1.143,0.879-2.781,0.952-4.101,0.819
		c-1.464,0.968-2.752,3.031-4.627,4.555c0.06,2.387-7.145,18.141-10.188,23.366c-2.87,4.936-2.606,8.199-2.08,8.873
		c0.586,0.702,1.875,4.262,2.108,5.783c0.264,1.61-0.088,6.208-0.82,6.516c-0.088,0.674,0.908,1.537,1.846,3.222
		c1.316,2.387,8.931,8.155,10.365,8.243c1.084,1.054,1.786,2.811,1.554,4.349c-0.265,1.522-2.9,4.963-9.313,4.743
		c-6.384-0.234-19.854,0.249-23.426-7.307l-0.117-0.277c-0.527,0.425-1.465,0.469-2.636,0.615c-1.464-0.439-3.017-2.344-3.661-3.764
		c-0.029-1.771-0.087-5.637,0.06-6.56c-0.292-0.104-2.138-1.757-2.195-1.771c-0.06-0.028-1.172-13.514-1.729-14.349
		c-0.556-0.835-2.02-7.174-2.518-7.555c-0.469-0.381-7.775-11.422-10.41-10.426c-2.635,0.98-9.956,6.063-9.956,6.063
		s-17.716,17.833-17.364,19.59c0.322,1.742-3.074,3.192-3.222,6.472c-0.132,3.279-2.812,4.407-2.812,4.407s0.205,5.682-0.043,5.975
		c-0.249,0.293-2.094,5.416-5.988,5.842c-0.352,2.416-3.295,8.258-17.951,10.747c-10.717,1.36-11.127-4.511-10.906-5.507
		c0.22-0.979,0.176-2.84,2.679-5.021c1.465-1.288,4.86-5.856,6.223-8.741c-0.029-0.746,0.074-2.284,0.074-2.284
		s-2.211-1.142-2.095-2.226c0.103-1.083-0.016-4.143-0.016-4.143s2.709-7.116,2.621-9.708c-0.088-2.591,0.366-12.079-1.508-18.434
		c-1.144-3.91-5.563-14.479-8.728-17.116c-2.723,0.807-7.877-2.488-9.048-2.605c-0.674-3.162-2.592-9.165-2.841-9.487
		c-0.498-0.63-2.841-5.124-3.31-6.267c-0.82-1.978-0.879-6.428-0.586-10.044c0.088-1.068,0.791-4.772,2.006-6.823
		c4.145-6.982,18.785-20.248,18.785-20.248l-0.103-15.813c0,0,0.132-0.98,0.923-0.894c0.79,0.088,1.844,0.044,1.844,0.044
		s5.506-13.074,6.15-14.188c0.717-1.23,3.426-8.668,4.597-11.201c0.337-0.717,0.938-4.201,0.908-11.934
		C3009.477,1334.609,3009.184,1333.438,3009.314,1332.867z"/>
</g>
<g>
	<path fill="#FFCC00" d="M2886.02,1799.281c7.569-5.622,14.013-1.127,16.854,1.684c2.548-1.272,13.968-2.897,17.848-3.25
		c3.982-0.366,16.325-1.201,22.079-0.747c2.519,0.19,13.704,2.183,15.168,1.713c1.406-1.669,13.354-8.286,15.638-8.872
		c2.431-0.337,4.979-0.337,5.682,0.016c1.111,0.688,0.322,6.003-0.527,8.155c-0.82,2.151-6.354,12.459-6.354,12.459
		s0.176,4.378-0.526,5.579c-0.088,1.697-0.146,3.338,0.233,3.791c0.819,0.98,2.636,8.683,2.226,21.084
		c-0.117,3.295,0.029,3.646-0.029,5.681c1.056,0.952,1.289,1.406,1.289,1.406l0.029,10.277c0,0-1.201,2.854-0.996,4.583
		c0.205,1.728,1.933,4.012,5.065,6.339c2.078,1.538,16.778,13.896,16.955,16.325c0.059,0.879,0.233,2.489-0.146,3.178
		c0,0-1.845,3.191-2.227,3.235c0.293,0.571,5.652,14.012,3.484,18.58c-1.143,0.878-2.781,0.951-4.1,0.819
		c-1.465,0.967-2.752,3.03-4.627,4.554c0.06,2.387-7.146,18.141-10.189,23.368c-2.87,4.934-2.605,8.198-2.079,8.871
		c0.586,0.703,1.874,4.262,2.108,5.783c0.264,1.61-0.088,6.208-0.82,6.517c-0.088,0.674,0.908,1.536,1.846,3.221
		c1.316,2.387,8.931,8.155,10.365,8.243c1.084,1.055,1.787,2.812,1.553,4.349c-0.264,1.522-2.898,4.964-9.313,4.744
		c-6.385-0.234-19.854,0.249-23.427-7.306l-0.116-0.279c-0.527,0.425-1.466,0.469-2.637,0.615c-1.464-0.439-3.016-2.343-3.66-3.764
		c-0.028-1.771-0.088-5.637,0.06-6.56c-0.293-0.103-2.138-1.757-2.196-1.771c-0.059-0.028-1.172-13.514-1.728-14.349
		c-0.558-0.834-2.021-7.174-2.52-7.555c-0.469-0.381-7.773-11.42-10.409-10.426c-2.636,0.981-9.957,6.063-9.957,6.063
		s-17.716,17.833-17.363,19.591c0.322,1.742-3.074,3.191-3.221,6.471c-0.134,3.28-2.813,4.407-2.813,4.407s0.205,5.681-0.044,5.974
		s-2.094,5.418-5.988,5.843c-0.352,2.416-3.295,8.258-17.95,10.746c-10.718,1.361-11.127-4.51-10.907-5.505
		c0.22-0.98,0.176-2.841,2.68-5.021c1.464-1.288,4.86-5.856,6.223-8.741c-0.028-0.746,0.073-2.283,0.073-2.283
		s-2.211-1.143-2.094-2.226c0.103-1.084-0.016-4.144-0.016-4.144s2.709-7.116,2.621-9.707c-0.088-2.593,0.365-12.08-1.509-18.435
		c-1.142-3.909-5.563-14.479-8.727-17.116c-2.724,0.807-7.877-2.488-9.048-2.605c-0.674-3.162-2.593-9.165-2.842-9.487
		c-0.497-0.63-2.84-5.124-3.309-6.267c-0.82-1.978-0.879-6.428-0.586-10.043c0.088-1.069,0.791-4.773,2.006-6.823
		c4.145-6.984,18.785-20.249,18.785-20.249l-0.104-15.813c0,0,0.133-0.981,0.924-0.895c0.789,0.088,1.845,0.044,1.845,0.044
		s5.505-13.074,6.148-14.188c0.718-1.229,3.427-8.668,4.599-11.199c0.336-0.719,0.937-4.202,0.906-11.934
		C2886.181,1801.023,2885.888,1799.854,2886.02,1799.281z"/>
</g>
<g>
	<path fill="#FFCC00" d="M2545.638,2139.722c7.569-5.622,14.013-1.128,16.854,1.685c2.547-1.273,13.968-2.899,17.848-3.25
		c3.981-0.366,16.325-1.201,22.079-0.747c2.52,0.189,13.704,2.182,15.169,1.713c1.405-1.669,13.353-8.287,15.637-8.873
		c2.431-0.336,4.979-0.336,5.681,0.016c1.112,0.688,0.322,6.002-0.526,8.154c-0.819,2.152-6.354,12.46-6.354,12.46
		s0.176,4.378-0.527,5.579c-0.088,1.698-0.146,3.338,0.234,3.792c0.82,0.98,2.636,8.684,2.227,21.083
		c-0.117,3.295,0.028,3.646-0.029,5.682c1.055,0.951,1.289,1.405,1.289,1.405l0.027,10.278c0,0-1.199,2.854-0.994,4.582
		s1.933,4.012,5.064,6.34c2.08,1.537,16.779,13.896,16.955,16.325c0.059,0.879,0.234,2.488-0.146,3.177c0,0-1.845,3.192-2.226,3.236
		c0.293,0.569,5.651,14.012,3.485,18.58c-1.144,0.878-2.782,0.95-4.101,0.819c-1.465,0.967-2.753,3.03-4.627,4.554
		c0.06,2.387-7.145,18.141-10.189,23.366c-2.87,4.936-2.606,8.199-2.079,8.873c0.586,0.703,1.874,4.262,2.107,5.783
		c0.264,1.61-0.088,6.208-0.818,6.517c-0.088,0.674,0.906,1.537,1.844,3.221c1.318,2.387,8.932,8.155,10.365,8.243
		c1.084,1.055,1.786,2.812,1.553,4.349c-0.264,1.522-2.898,4.963-9.313,4.744c-6.384-0.233-19.854,0.248-23.426-7.307l-0.117-0.277
		c-0.527,0.424-1.464,0.468-2.636,0.614c-1.464-0.439-3.017-2.344-3.66-3.764c-0.028-1.771-0.088-5.637,0.06-6.56
		c-0.293-0.103-2.139-1.757-2.196-1.771c-0.06-0.029-1.171-13.515-1.728-14.35c-0.558-0.834-2.021-7.174-2.52-7.555
		c-0.468-0.381-7.773-11.42-10.41-10.426c-2.635,0.981-9.956,6.063-9.956,6.063s-17.716,17.833-17.364,19.59
		c0.322,1.742-3.074,3.192-3.222,6.473c-0.131,3.279-2.811,4.406-2.811,4.406s0.205,5.682-0.044,5.975s-2.094,5.417-5.988,5.842
		c-0.352,2.416-3.294,8.258-17.95,10.747c-10.718,1.361-11.127-4.51-10.907-5.506c0.22-0.98,0.176-2.841,2.68-5.021
		c1.464-1.288,4.861-5.855,6.223-8.739c-0.029-0.748,0.073-2.285,0.073-2.285s-2.211-1.143-2.095-2.226
		c0.104-1.084-0.015-4.144-0.015-4.144s2.709-7.116,2.621-9.708c-0.088-2.591,0.365-12.078-1.509-18.434
		c-1.143-3.909-5.563-14.479-8.727-17.116c-2.724,0.807-7.877-2.487-9.049-2.604c-0.674-3.163-2.592-9.166-2.84-9.488
		c-0.498-0.629-2.841-5.124-3.311-6.267c-0.818-1.978-0.877-6.428-0.584-10.044c0.088-1.068,0.789-4.772,2.006-6.822
		c4.143-6.983,18.783-20.249,18.783-20.249l-0.103-15.813c0,0,0.132-0.98,0.923-0.894c0.79,0.088,1.846,0.044,1.846,0.044
		s5.504-13.075,6.148-14.188c0.718-1.229,3.426-8.668,4.597-11.2c0.337-0.718,0.938-4.202,0.908-11.935
		C2545.799,2141.464,2545.506,2140.293,2545.638,2139.722z"/>
</g>
<g>
	<path fill="#FFCC00" d="M2081.902,2263.002c7.57-5.623,14.012-1.128,16.853,1.684c2.548-1.272,13.968-2.898,17.849-3.25
		c3.981-0.366,16.324-1.2,22.078-0.746c2.52,0.189,13.705,2.182,15.17,1.713c1.404-1.67,13.353-8.287,15.637-8.873
		c2.431-0.338,4.978-0.338,5.681,0.015c1.113,0.688,0.322,6.004-0.527,8.155c-0.819,2.151-6.354,12.459-6.354,12.459
		s0.176,4.379-0.527,5.578c-0.088,1.699-0.146,3.34,0.233,3.793c0.819,0.98,2.636,8.682,2.226,21.083
		c-0.116,3.294,0.029,3.646-0.028,5.681c1.055,0.952,1.288,1.406,1.288,1.406l0.029,10.277c0,0-1.201,2.855-0.996,4.583
		s1.935,4.012,5.065,6.34c2.08,1.537,16.779,13.896,16.955,16.325c0.06,0.879,0.234,2.488-0.146,3.177c0,0-1.846,3.192-2.226,3.236
		c0.291,0.57,5.65,14.012,3.483,18.579c-1.142,0.879-2.782,0.952-4.101,0.82c-1.464,0.967-2.752,3.031-4.627,4.554
		c0.06,2.386-7.145,18.142-10.189,23.367c-2.869,4.935-2.605,8.198-2.078,8.873c0.585,0.702,1.873,4.261,2.107,5.782
		c0.264,1.61-0.088,6.209-0.819,6.516c-0.088,0.674,0.907,1.538,1.845,3.222c1.317,2.387,8.932,8.155,10.366,8.243
		c1.083,1.055,1.786,2.811,1.552,4.349c-0.264,1.522-2.898,4.963-9.313,4.743c-6.383-0.234-19.854,0.249-23.426-7.306l-0.117-0.278
		c-0.527,0.425-1.465,0.469-2.635,0.615c-1.466-0.439-3.018-2.344-3.66-3.764c-0.029-1.771-0.088-5.638,0.058-6.56
		c-0.292-0.103-2.138-1.757-2.196-1.771c-0.059-0.029-1.17-13.515-1.728-14.35c-0.556-0.835-2.021-7.175-2.519-7.555
		c-0.469-0.381-7.773-11.421-10.409-10.426c-2.636,0.98-9.956,6.063-9.956,6.063s-17.717,17.833-17.365,19.59
		c0.322,1.742-3.074,3.192-3.221,6.473c-0.133,3.278-2.813,4.406-2.813,4.406s0.205,5.682-0.044,5.975
		c-0.248,0.293-2.094,5.417-5.987,5.842c-0.353,2.416-3.295,8.258-17.95,10.746c-10.718,1.362-11.127-4.509-10.907-5.505
		c0.219-0.979,0.176-2.84,2.679-5.021c1.464-1.289,4.861-5.856,6.224-8.741c-0.029-0.746,0.072-2.284,0.072-2.284
		s-2.211-1.143-2.094-2.227c0.104-1.082-0.015-4.143-0.015-4.143s2.709-7.116,2.621-9.708c-0.088-2.591,0.366-12.079-1.509-18.433
		c-1.143-3.91-5.563-14.48-8.727-17.116c-2.725,0.806-7.877-2.489-9.048-2.606c-0.675-3.162-2.593-9.165-2.841-9.486
		c-0.498-0.631-2.842-5.125-3.311-6.268c-0.819-1.977-0.878-6.428-0.585-10.044c0.088-1.069,0.79-4.772,2.006-6.823
		c4.145-6.982,18.784-20.248,18.784-20.248l-0.102-15.813c0,0,0.131-0.98,0.922-0.894s1.845,0.044,1.845,0.044
		s5.505-13.074,6.149-14.188c0.718-1.23,3.426-8.668,4.598-11.201c0.337-0.717,0.937-4.201,0.908-11.934
		C2082.064,2264.744,2081.771,2263.572,2081.902,2263.002z"/>
</g>
<g>
	<path fill="#FFCC00" d="M1618.175,2139.722c7.569-5.622,14.013-1.128,16.854,1.685c2.548-1.273,13.968-2.899,17.848-3.25
		c3.982-0.366,16.325-1.201,22.079-0.747c2.52,0.189,13.704,2.182,15.169,1.713c1.405-1.669,13.353-8.287,15.637-8.873
		c2.431-0.336,4.979-0.336,5.682,0.016c1.111,0.688,0.321,6.002-0.527,8.154c-0.819,2.152-6.354,12.46-6.354,12.46
		s0.177,4.378-0.525,5.579c-0.088,1.698-0.146,3.338,0.232,3.792c0.82,0.98,2.637,8.684,2.228,21.083
		c-0.117,3.295,0.029,3.646-0.029,5.682c1.054,0.951,1.288,1.405,1.288,1.405l0.029,10.278c0,0-1.2,2.854-0.996,4.582
		c0.205,1.729,1.933,4.012,5.066,6.34c2.078,1.537,16.777,13.896,16.953,16.325c0.06,0.879,0.234,2.488-0.146,3.177
		c0,0-1.845,3.192-2.225,3.236c0.293,0.569,5.65,14.012,3.483,18.58c-1.143,0.878-2.781,0.95-4.1,0.819
		c-1.465,0.967-2.753,3.03-4.627,4.554c0.059,2.387-7.146,18.141-10.19,23.366c-2.868,4.936-2.605,8.199-2.079,8.873
		c0.587,0.703,1.875,4.262,2.108,5.783c0.265,1.61-0.088,6.208-0.819,6.517c-0.088,0.674,0.907,1.537,1.846,3.221
		c1.316,2.387,8.931,8.155,10.365,8.243c1.084,1.055,1.786,2.812,1.553,4.349c-0.265,1.522-2.899,4.963-9.313,4.744
		c-6.385-0.233-19.854,0.248-23.427-7.307l-0.117-0.277c-0.526,0.424-1.464,0.468-2.636,0.614c-1.464-0.439-3.016-2.344-3.66-3.764
		c-0.029-1.771-0.088-5.637,0.059-6.56c-0.293-0.103-2.138-1.757-2.195-1.771c-0.06-0.029-1.171-13.515-1.729-14.35
		c-0.557-0.834-2.021-7.174-2.518-7.555c-0.469-0.381-7.775-11.42-10.41-10.426c-2.636,0.981-9.957,6.063-9.957,6.063
		s-17.716,17.833-17.364,19.59c0.322,1.742-3.073,3.192-3.221,6.473c-0.132,3.279-2.812,4.406-2.812,4.406s0.204,5.682-0.045,5.975
		c-0.248,0.293-2.094,5.417-5.987,5.842c-0.353,2.416-3.294,8.258-17.95,10.747c-10.718,1.361-11.127-4.51-10.908-5.506
		c0.221-0.98,0.176-2.841,2.681-5.021c1.465-1.288,4.86-5.855,6.223-8.739c-0.029-0.748,0.073-2.285,0.073-2.285
		s-2.211-1.143-2.094-2.226c0.103-1.084-0.016-4.144-0.016-4.144s2.709-7.116,2.621-9.708c-0.088-2.591,0.365-12.078-1.508-18.434
		c-1.144-3.909-5.564-14.479-8.728-17.116c-2.724,0.807-7.877-2.487-9.049-2.604c-0.673-3.163-2.592-9.166-2.84-9.488
		c-0.498-0.629-2.841-5.124-3.309-6.267c-0.82-1.978-0.88-6.428-0.587-10.044c0.089-1.068,0.791-4.772,2.007-6.822
		c4.143-6.983,18.784-20.249,18.784-20.249l-0.104-15.813c0,0,0.132-0.98,0.923-0.894c0.79,0.088,1.845,0.044,1.845,0.044
		s5.506-13.075,6.149-14.188c0.718-1.229,3.426-8.668,4.598-11.2c0.337-0.718,0.938-4.202,0.907-11.935
		C1618.336,2141.464,1618.043,2140.293,1618.175,2139.722z"/>
</g>
<g>
	<path fill="#FFCC00" d="M1277.764,1799.281c7.57-5.622,14.013-1.127,16.854,1.684c2.548-1.272,13.968-2.897,17.848-3.25
		c3.982-0.366,16.325-1.201,22.079-0.747c2.52,0.19,13.705,2.183,15.169,1.713c1.405-1.669,13.354-8.286,15.637-8.872
		c2.432-0.337,4.979-0.337,5.682,0.016c1.113,0.688,0.322,6.003-0.527,8.155c-0.818,2.151-6.354,12.459-6.354,12.459
		s0.176,4.378-0.527,5.579c-0.088,1.697-0.146,3.338,0.234,3.791c0.818,0.98,2.635,8.683,2.225,21.084
		c-0.117,3.295,0.029,3.646-0.029,5.681c1.056,0.952,1.289,1.406,1.289,1.406l0.029,10.277c0,0-1.201,2.854-0.996,4.583
		c0.205,1.728,1.934,4.012,5.066,6.339c2.078,1.538,16.778,13.896,16.955,16.325c0.059,0.879,0.232,2.489-0.146,3.178
		c0,0-1.846,3.191-2.226,3.235c0.292,0.571,5.65,14.012,3.483,18.58c-1.142,0.878-2.781,0.951-4.1,0.819
		c-1.464,0.967-2.753,3.03-4.627,4.554c0.059,2.387-7.146,18.141-10.19,23.368c-2.868,4.934-2.604,8.198-2.079,8.871
		c0.587,0.703,1.875,4.262,2.108,5.783c0.265,1.61-0.088,6.208-0.819,6.517c-0.088,0.674,0.907,1.536,1.846,3.221
		c1.316,2.387,8.931,8.155,10.365,8.243c1.084,1.055,1.786,2.812,1.553,4.349c-0.265,1.522-2.899,4.964-9.313,4.744
		c-6.383-0.234-19.854,0.249-23.426-7.306l-0.117-0.279c-0.526,0.425-1.464,0.469-2.635,0.615c-1.465-0.439-3.017-2.343-3.661-3.764
		c-0.029-1.771-0.088-5.637,0.059-6.56c-0.291-0.103-2.138-1.757-2.195-1.771c-0.06-0.028-1.171-13.514-1.729-14.349
		c-0.556-0.834-2.021-7.174-2.519-7.555c-0.468-0.381-7.774-11.42-10.409-10.426c-2.636,0.981-9.956,6.063-9.956,6.063
		s-17.717,17.833-17.365,19.591c0.322,1.742-3.074,3.191-3.221,6.471c-0.132,3.28-2.813,4.407-2.813,4.407s0.205,5.681-0.044,5.974
		c-0.248,0.293-2.094,5.418-5.987,5.843c-0.353,2.416-3.294,8.258-17.95,10.746c-10.718,1.361-11.127-4.51-10.907-5.505
		c0.219-0.98,0.176-2.841,2.679-5.021c1.465-1.288,4.861-5.856,6.224-8.741c-0.029-0.746,0.073-2.283,0.073-2.283
		s-2.212-1.143-2.095-2.226c0.104-1.084-0.015-4.144-0.015-4.144s2.709-7.116,2.621-9.707c-0.088-2.593,0.365-12.08-1.51-18.435
		c-1.142-3.909-5.563-14.479-8.726-17.116c-2.724,0.807-7.877-2.488-9.048-2.605c-0.674-3.162-2.592-9.165-2.841-9.487
		c-0.498-0.63-2.841-5.124-3.311-6.267c-0.818-1.978-0.878-6.428-0.585-10.043c0.088-1.069,0.79-4.773,2.006-6.823
		c4.145-6.984,18.784-20.249,18.784-20.249l-0.102-15.813c0,0,0.131-0.981,0.922-0.895s1.845,0.044,1.845,0.044
		s5.505-13.074,6.149-14.188c0.718-1.229,3.426-8.668,4.598-11.199c0.336-0.719,0.938-4.202,0.907-11.934
		C1277.925,1801.023,1277.633,1799.854,1277.764,1799.281z"/>
</g>
<g>
	<path fill="#FFCC00" d="M1153.101,1334.155c7.569-5.622,14.013-1.127,16.854,1.684c2.547-1.272,13.967-2.897,17.848-3.25
		c3.982-0.366,16.324-1.201,22.079-0.747c2.52,0.19,13.704,2.183,15.168,1.713c1.405-1.669,13.354-8.287,15.637-8.871
		c2.432-0.338,4.979-0.338,5.682,0.015c1.113,0.688,0.322,6.003-0.526,8.155c-0.819,2.151-6.354,12.46-6.354,12.46
		s0.176,4.377-0.527,5.577c-0.088,1.698-0.146,3.339,0.234,3.793c0.819,0.979,2.636,8.683,2.226,21.082
		c-0.117,3.296,0.029,3.646-0.029,5.683c1.055,0.951,1.288,1.405,1.288,1.405l0.029,10.277c0,0-1.2,2.854-0.995,4.582
		c0.205,1.729,1.933,4.012,5.064,6.34c2.079,1.537,16.779,13.896,16.955,16.325c0.06,0.879,0.234,2.489-0.146,3.178
		c0,0-1.845,3.191-2.226,3.235c0.293,0.571,5.65,14.012,3.483,18.58c-1.142,0.878-2.781,0.951-4.1,0.818
		c-1.464,0.968-2.752,3.031-4.626,4.555c0.059,2.387-7.146,18.141-10.19,23.367c-2.87,4.935-2.605,8.198-2.079,8.873
		c0.586,0.702,1.874,4.261,2.108,5.782c0.263,1.611-0.088,6.208-0.82,6.517c-0.088,0.674,0.908,1.537,1.846,3.221
		c1.317,2.387,8.932,8.155,10.365,8.243c1.083,1.055,1.786,2.812,1.553,4.349c-0.265,1.522-2.898,4.964-9.313,4.744
		c-6.384-0.234-19.854,0.249-23.427-7.307l-0.117-0.277c-0.525,0.424-1.464,0.468-2.635,0.614c-1.464-0.438-3.016-2.343-3.66-3.763
		c-0.029-1.771-0.088-5.638,0.059-6.561c-0.293-0.104-2.138-1.757-2.195-1.771c-0.06-0.028-1.172-13.514-1.729-14.349
		c-0.557-0.834-2.021-7.174-2.519-7.555c-0.47-0.381-7.774-11.42-10.41-10.425c-2.636,0.98-9.956,6.062-9.956,6.062
		s-17.716,17.834-17.364,19.591c0.321,1.742-3.075,3.191-3.222,6.471c-0.133,3.28-2.812,4.407-2.812,4.407s0.205,5.681-0.044,5.974
		s-2.094,5.418-5.988,5.843c-0.352,2.416-3.295,8.258-17.949,10.747c-10.719,1.36-11.129-4.511-10.908-5.506
		c0.22-0.98,0.176-2.841,2.68-5.021c1.464-1.288,4.86-5.855,6.224-8.74c-0.029-0.747,0.071-2.284,0.071-2.284
		s-2.211-1.143-2.094-2.226c0.104-1.084-0.014-4.145-0.014-4.145s2.708-7.115,2.62-9.707c-0.089-2.592,0.365-12.078-1.509-18.434
		c-1.142-3.909-5.563-14.479-8.727-17.116c-2.723,0.807-7.877-2.487-9.048-2.604c-0.674-3.163-2.593-9.166-2.841-9.488
		c-0.497-0.629-2.84-5.124-3.31-6.266c-0.819-1.979-0.879-6.428-0.586-10.045c0.088-1.068,0.791-4.772,2.006-6.822
		c4.145-6.984,18.785-20.249,18.785-20.249l-0.103-15.813c0,0,0.132-0.98,0.922-0.894c0.791,0.088,1.846,0.044,1.846,0.044
		s5.505-13.074,6.148-14.188c0.718-1.229,3.427-8.667,4.598-11.199c0.337-0.719,0.938-4.202,0.908-11.934
		C1153.262,1335.896,1152.969,1334.727,1153.101,1334.155z"/>
</g>
<g>
	<path fill="#FFCC00" d="M1277.764,870.435c7.57-5.622,14.013-1.127,16.854,1.685c2.548-1.274,13.968-2.899,17.848-3.25
		c3.982-0.366,16.325-1.2,22.079-0.747c2.52,0.19,13.705,2.182,15.169,1.713c1.405-1.669,13.354-8.287,15.637-8.873
		c2.432-0.337,4.979-0.337,5.682,0.015c1.113,0.688,0.322,6.004-0.527,8.155c-0.818,2.152-6.354,12.46-6.354,12.46
		s0.176,4.377-0.527,5.578c-0.088,1.698-0.146,3.338,0.234,3.792c0.818,0.981,2.635,8.684,2.225,21.084
		c-0.117,3.294,0.029,3.646-0.029,5.682c1.056,0.951,1.289,1.404,1.289,1.404l0.029,10.278c0,0-1.201,2.855-0.996,4.583
		s1.934,4.012,5.066,6.34c2.078,1.537,16.778,13.896,16.955,16.325c0.059,0.878,0.232,2.488-0.146,3.177
		c0,0-1.846,3.191-2.226,3.235c0.292,0.571,5.65,14.012,3.483,18.58c-1.142,0.879-2.781,0.952-4.1,0.82
		c-1.464,0.966-2.753,3.029-4.627,4.553c0.059,2.387-7.146,18.141-10.19,23.368c-2.868,4.934-2.604,8.198-2.079,8.872
		c0.587,0.702,1.875,4.261,2.108,5.783c0.265,1.61-0.088,6.208-0.819,6.516c-0.088,0.674,0.907,1.538,1.846,3.222
		c1.316,2.386,8.931,8.155,10.365,8.243c1.084,1.054,1.786,2.811,1.553,4.348c-0.265,1.523-2.899,4.965-9.313,4.744
		c-6.383-0.233-19.854,0.249-23.426-7.306l-0.117-0.278c-0.526,0.426-1.464,0.469-2.635,0.615c-1.465-0.439-3.017-2.343-3.661-3.764
		c-0.029-1.771-0.088-5.638,0.059-6.56c-0.291-0.103-2.138-1.757-2.195-1.771c-0.06-0.029-1.171-13.516-1.729-14.35
		c-0.556-0.835-2.021-7.175-2.519-7.556c-0.468-0.38-7.774-11.42-10.409-10.424c-2.636,0.979-9.956,6.062-9.956,6.062
		s-17.717,17.833-17.365,19.59c0.322,1.742-3.074,3.191-3.221,6.473c-0.132,3.279-2.813,4.406-2.813,4.406s0.205,5.682-0.044,5.975
		c-0.249,0.292-2.094,5.417-5.987,5.842c-0.353,2.416-3.294,8.258-17.95,10.746c-10.718,1.362-11.127-4.51-10.907-5.505
		c0.219-0.981,0.176-2.841,2.679-5.022c1.465-1.287,4.861-5.854,6.224-8.739c-0.029-0.747,0.073-2.284,0.073-2.284
		s-2.212-1.143-2.095-2.227c0.104-1.082-0.015-4.144-0.015-4.144s2.709-7.115,2.621-9.707s0.365-12.079-1.51-18.434
		c-1.142-3.909-5.563-14.48-8.726-17.115c-2.724,0.805-7.877-2.489-9.048-2.606c-0.674-3.162-2.592-9.166-2.841-9.486
		c-0.498-0.631-2.841-5.125-3.311-6.268c-0.818-1.977-0.878-6.428-0.585-10.044c0.088-1.069,0.79-4.772,2.006-6.823
		c4.145-6.982,18.784-20.249,18.784-20.249l-0.102-15.813c0,0,0.131-0.981,0.922-0.894c0.791,0.089,1.845,0.045,1.845,0.045
		s5.505-13.075,6.149-14.188c0.718-1.229,3.426-8.667,4.598-11.201c0.336-0.717,0.938-4.202,0.907-11.933
		C1277.925,872.177,1277.633,871.006,1277.764,870.435z"/>
</g>
<g>
	<path fill="#FFCC00" d="M1617.473,529.936c7.569-5.621,14.013-1.127,16.853,1.685c2.548-1.273,13.968-2.899,17.848-3.25
		c3.982-0.366,16.325-1.201,22.08-0.747c2.519,0.189,13.704,2.182,15.168,1.713c1.405-1.669,13.354-8.287,15.637-8.873
		c2.432-0.336,4.979-0.336,5.682,0.016c1.112,0.688,0.321,6.003-0.526,8.154c-0.82,2.152-6.354,12.46-6.354,12.46
		s0.176,4.378-0.527,5.578c-0.088,1.699-0.146,3.338,0.234,3.792c0.818,0.981,2.636,8.683,2.226,21.083
		c-0.117,3.294,0.029,3.646-0.029,5.682c1.054,0.951,1.288,1.405,1.288,1.405l0.029,10.278c0,0-1.2,2.854-0.995,4.583
		s1.933,4.012,5.065,6.34c2.078,1.537,16.778,13.896,16.954,16.325c0.06,0.878,0.233,2.489-0.146,3.177c0,0-1.845,3.192-2.227,3.236
		c0.293,0.571,5.651,14.012,3.484,18.58c-1.142,0.879-2.781,0.952-4.1,0.82c-1.464,0.966-2.752,3.03-4.627,4.553
		c0.059,2.387-7.146,18.141-10.189,23.368c-2.87,4.934-2.605,8.198-2.08,8.873c0.586,0.702,1.875,4.261,2.109,5.783
		c0.264,1.61-0.088,6.208-0.82,6.516c-0.088,0.673,0.908,1.538,1.846,3.221c1.316,2.387,8.931,8.155,10.365,8.243
		c1.083,1.054,1.786,2.811,1.553,4.348c-0.265,1.523-2.899,4.963-9.313,4.744c-6.384-0.234-19.854,0.249-23.426-7.306l-0.117-0.278
		c-0.527,0.425-1.465,0.469-2.636,0.615c-1.464-0.439-3.017-2.343-3.661-3.764c-0.029-1.771-0.088-5.637,0.059-6.559
		c-0.292-0.103-2.137-1.757-2.194-1.771c-0.06-0.029-1.172-13.515-1.729-14.35c-0.556-0.835-2.02-7.174-2.518-7.555
		c-0.469-0.38-7.775-11.42-10.41-10.424c-2.636,0.979-9.956,6.062-9.956,6.062s-17.716,17.833-17.364,19.59
		c0.321,1.742-3.074,3.192-3.222,6.473c-0.132,3.278-2.813,4.406-2.813,4.406s0.205,5.682-0.043,5.975
		c-0.25,0.293-2.094,5.417-5.987,5.842c-0.353,2.416-3.295,8.257-17.951,10.747c-10.717,1.362-11.127-4.51-10.907-5.505
		c0.22-0.981,0.176-2.84,2.679-5.022c1.465-1.288,4.861-5.855,6.224-8.741c-0.029-0.746,0.072-2.283,0.072-2.283
		s-2.21-1.143-2.093-2.227c0.103-1.083-0.016-4.143-0.016-4.143s2.709-7.116,2.621-9.708c-0.088-2.591,0.365-12.079-1.509-18.435
		c-1.143-3.908-5.563-14.479-8.727-17.114c-2.724,0.805-7.877-2.489-9.048-2.606c-0.674-3.163-2.592-9.166-2.841-9.487
		c-0.498-0.63-2.841-5.125-3.31-6.267c-0.819-1.977-0.879-6.428-0.586-10.044c0.088-1.069,0.791-4.773,2.006-6.823
		c4.145-6.982,18.785-20.249,18.785-20.249l-0.103-15.813c0,0,0.132-0.98,0.922-0.894c0.791,0.088,1.845,0.044,1.845,0.044
		s5.506-13.075,6.149-14.188c0.718-1.23,3.427-8.667,4.598-11.201c0.337-0.717,0.937-4.202,0.907-11.933
		C1617.633,531.678,1617.341,530.507,1617.473,529.936z"/>
</g>
</svg>
